<?xml version="1.0" encoding="utf-8"?>
<svg height='300px' width='300px' fill="#000000" xmlns="http://www.w3.org/2000/svg"
    xmlns:xlink="http://www.w3.org/1999/xlink" version="1.1" x="0px" y="0px" viewBox="0 0 128 128"
    enable-background="new 0 0 128 128" xml:space="preserve">
    <g>
        <path
            d="M110.049,37.714l15.594-14.735c1.521-1.532,2.357-3.557,2.357-5.702c0-2.152-0.843-4.18-2.363-5.712   c-3.058-3.058-8.355-3.095-11.499,0.073L96.499,30.3c-4.001-1.626-8.306-2.997-12.868-4.061c-5.999-1.4-12.185-2.109-18.377-2.109   c-27.405,0-52.859,13.835-61.894,33.638c-6.306,13.811-3.679,28.441,7.384,41.195c9.137,10.531,32.497,19.771,49.989,19.771   c6.625,0,12.31-1.222,16.893-3.636c2.179-1.146,3.685-3.082,4.245-5.455c0.707-2.988-0.124-6.344-2.347-9.444   c-0.749-1.044-1.601-2.063-2.453-3.075c-2.146-2.551-3.193-3.988-2.869-4.639c0.004,0.006,0.017,0.006,0.032,0.006   c0.108,0,0.507-0.09,1.289-0.09c1.662,0,3.98,0.395,6.434,0.81c3.4,0.577,7.251,1.233,11.268,1.233   c16.133-0.104,27.93-8.14,31.781-21.5c2.237-7.751,1.25-15.547-2.854-22.546C119.385,45.679,115.217,41.419,110.049,37.714z    M117.313,14.713c1.42-1.421,3.814-1.408,5.195-0.027c0.689,0.693,1.067,1.615,1.067,2.591c0,0.971-0.378,1.894-1.02,2.544   L86.186,54.187l-3.175-3.173L117.313,14.713z M73.078,61.52l7.975-8.433l3.051,3.061l-8.43,7.97L73.078,61.52z M73.598,66.076   l-0.043,0.041l-0.146,0.678C70.053,82.711,55.47,85.316,50.441,79.313c5.696-0.419,8.13-4.418,10.292-7.97   c2.228-3.641,4.332-7.082,9.487-7.588l0.826-0.082l0.069-0.075L73.598,66.076z M120.761,71.719   c-3.948,13.7-16.537,18.236-27.336,18.304c-0.064,0-0.134,0-0.2,0c-6.65,0-13.192-2.039-17.701-2.039   c-2.248,0-3.992,0.507-4.99,2.034c-2.923,4.469,2.299,8.438,5.399,12.754c2.454,3.428,2.358,6.984-0.361,8.416   c-4.163,2.188-9.299,3.129-14.838,3.129c-17.438,0-38.894-9.313-46.651-18.25c-27.496-31.69,8.232-67.516,51.167-67.516   c5.711,0,11.548,0.631,17.378,1.993c3.651,0.852,7.184,1.96,10.572,3.255L68.943,59.462c-6.737,1.006-9.634,5.744-11.986,9.587   c-2.345,3.859-3.748,5.874-7.841,5.874c-0.006,0-0.018,0-0.022,0l-6.478-0.205l3.194,5.634c2.307,4.056,6.708,6.476,11.768,6.476   c7.633,0,17.05-5.774,20.006-18.436l29.213-27.606C117.956,48.469,124.363,59.229,120.761,71.719z">
        </path>
        <path
            d="M30.016,77.976c-6.283,0-11.376,3.595-11.376,8.025c0,4.435,5.093,8.024,11.376,8.024c6.279,0,11.37-3.59,11.37-8.024   C41.386,81.57,36.295,77.976,30.016,77.976z">
        </path>
        <path
            d="M34.525,61.895c0-3.617-4.153-6.551-9.277-6.551c-5.125,0-9.283,2.934-9.283,6.551c0,3.613,4.158,6.547,9.283,6.547   C30.372,68.442,34.525,65.508,34.525,61.895z">
        </path>
        <ellipse cx="43.403" cy="45.724" rx="7.52" ry="5.307"></ellipse>
        <path
            d="M68.932,44.788c3.62,0,6.554-2.07,6.554-4.622c0-2.557-2.934-4.625-6.554-4.625c-3.618,0-6.554,2.068-6.554,4.625   C62.378,42.717,65.313,44.788,68.932,44.788z">
        </path>
    </g>
</svg>