<?xml version="1.0" encoding="utf-8"?>
<svg height='300px' width='300px' fill="#000000" xmlns="http://www.w3.org/2000/svg" data-name="Layer 1"
    viewBox="0 0 64 64" x="0px" y="0px">
    <title>file format document</title>
    <path
        d="M33.664,10.645a1,1,0,0,0-1-1h-15a1,1,0,0,0-1,1v24.01a1,1,0,0,0,1,1H46.339a1,1,0,0,0,1-1V22.65a1,1,0,0,0-1-1H33.664Zm-2,23.01h-13v-4h13Zm0-6h-13v-4h13Zm0-6h-13v-4h13Zm0-6h-13v-4h13ZM45.339,33.655H33.664v-4H45.339Zm0-10.005v4H33.664v-4Z">
    </path>
    <polygon points="22.802 53.628 24.482 53.628 23.666 50.46 22.802 53.628"></polygon>
    <path
        d="M54,43.67V17.376l-.293-.293L39.417,2.793,39.124,2.5H14a4,4,0,0,0-4,4V40.242a1.991,1.991,0,0,0-1,1.722V56.5a5.006,5.006,0,0,0,5,5H50a5.006,5.006,0,0,0,5-5V45.393A1.991,1.991,0,0,0,54,43.67ZM25.382,57.132,24.9,55.26H22.37l-.516,1.872h-1.92l2.58-8.928H24.77l2.544,8.928Zm9.384,0h-1.9l-1.164-5.688-1.152,5.688h-1.9L26.786,48.2H28.61l1.008,5.364L30.746,48.2h1.92l1.044,5.364L34.8,48.2h1.812Zm7.944-.576a3.586,3.586,0,0,1-2.352.7,3.844,3.844,0,0,1-1.9-.516,3,3,0,0,1-.852-.678A3.993,3.993,0,0,1,36.974,55l1.6-.7a4.5,4.5,0,0,0,.312.57,1.948,1.948,0,0,0,.384.438,1.643,1.643,0,0,0,.5.282,1.88,1.88,0,0,0,.642.1,2.5,2.5,0,0,0,.492-.048,1.293,1.293,0,0,0,.426-.162.818.818,0,0,0,.294-.312,1.031,1.031,0,0,0,.108-.5.875.875,0,0,0-.456-.744,5.9,5.9,0,0,0-1.212-.6,7.529,7.529,0,0,1-2.076-1.092,2.1,2.1,0,0,1-.72-1.692,2.193,2.193,0,0,1,.84-1.764,3.181,3.181,0,0,1,2.1-.7,3.549,3.549,0,0,1,1.9.516,2.857,2.857,0,0,1,.744.648,4.239,4.239,0,0,1,.588,1.008l-1.764.54a2.457,2.457,0,0,0-.546-.834,1.286,1.286,0,0,0-.93-.318,1.876,1.876,0,0,0-.39.042,1.286,1.286,0,0,0-.36.132.7.7,0,0,0-.366.642.612.612,0,0,0,.114.348,1.139,1.139,0,0,0,.39.324,8.1,8.1,0,0,0,1.3.576,6.23,6.23,0,0,1,1.824.972,2.164,2.164,0,0,1,.852,1.848A2.526,2.526,0,0,1,42.71,56.556ZM52,43.393H30.086l-2.4-2.746a2,2,0,0,0-1.505-.683H12V6.5a2,2,0,0,1,2-2H37.71V14.79a4,4,0,0,0,4,4H52Z">
    </path>
</svg>