<?xml version="1.0" encoding="utf-8"?>
<svg height='300px' width='300px' fill="#000000" xmlns="http://www.w3.org/2000/svg"
    xmlns:xlink="http://www.w3.org/1999/xlink" version="1.1" x="0px" y="0px" viewBox="0 0 512 512"
    enable-background="new 0 0 512 512" xml:space="preserve">
    <g>
        <path
            d="M467.7,54.9H103.5c-23.3,0-42.3,19-42.3,42.3v72.5H44.3C21,169.8,2,188.7,2,212.1v202.7c0,23.3,19,42.3,42.3,42.3h350.1   c23.3,0,42.3-19,42.3-42.3v-72.5h30.9c23.3,0,42.3-19,42.3-42.3V97.3C510,73.9,491,54.9,467.7,54.9z M240.2,169.8   c8-24.6,25.8-41.6,45.4-41.6c19.6,0,37.4,17.1,45.4,41.6H240.2z M408.5,414.7c0,7.8-6.3,14.1-14.1,14.1H44.3   c-7.8,0-14.1-6.3-14.1-14.1V212.1c0-7.8,6.3-14.1,14.1-14.1h350.1c7.8,0,14.1,6.3,14.1,14.1V414.7z M481.8,299.9   c0,7.8-6.3,14.1-14.1,14.1h-30.9V212.1c0-23.3-19-42.3-42.3-42.3h-34.1c-9.8-41.1-39.8-69.8-74.7-69.8c-35,0-64.9,28.7-74.7,69.8   H89.3V97.3c0-7.8,6.3-14.1,14.1-14.1h364.2c7.8,0,14.1,6.3,14.1,14.1V299.9z">
        </path>
        <path
            d="M219.4,263c10.1,0,18.2,8.2,18.2,18.2c0,7.8,6.3,14.1,14.1,14.1s14.1-6.3,14.1-14.1c0-20.7-13.6-38.3-32.4-44.3v-7.8   c0-7.8-6.3-14.1-14.1-14.1s-14.1,6.3-14.1,14.1v7.8c-18.7,6-32.3,23.6-32.3,44.3c0,25.6,20.8,46.5,46.5,46.5c-0.4,0,0,0,0.1,0   c9.2,0.9,18.2,8.6,18.2,18c0,10.1-8.2,18.2-18.2,18.2c-10.1,0-18.2-8.2-18.2-18.2c0-7.8-6.3-14.1-14.1-14.1s-14.1,6.3-14.1,14.1   c0,20.7,13.6,38.3,32.3,44.3v7.7c0,7.8,6.3,14.1,14.1,14.1s14.1-6.3,14.1-14.1V390c18.7-6,32.4-23.6,32.4-44.3   c0-25.6-22.6-46.4-48.2-46.4c0.4,0,0,0-0.1,0c-9.2-0.9-16.4-8.7-16.4-18.1C201.1,271.1,209.3,263,219.4,263z">
        </path>
        <path
            d="M114.5,350.8H78.8c-7.8,0-14.1,6.3-14.1,14.1c0,7.8,6.3,14.1,14.1,14.1h35.7c7.8,0,14.1-6.3,14.1-14.1   C128.6,357.1,122.3,350.8,114.5,350.8z">
        </path>
        <path
            d="M114.5,299.3H64.7c-7.8,0-14.1,6.3-14.1,14.1c0,7.8,6.3,14.1,14.1,14.1h49.8c7.8,0,14.1-6.3,14.1-14.1   C128.6,305.6,122.3,299.3,114.5,299.3z">
        </path>
        <path
            d="M114.5,247.8H78.8c-7.8,0-14.1,6.3-14.1,14.1s6.3,14.1,14.1,14.1h35.7c7.8,0,14.1-6.3,14.1-14.1S122.3,247.8,114.5,247.8z">
        </path>
        <path
            d="M324.2,276.1h35.7c7.8,0,14.1-6.3,14.1-14.1s-6.3-14.1-14.1-14.1h-35.7c-7.8,0-14.1,6.3-14.1,14.1S316.4,276.1,324.2,276.1   z">
        </path>
        <path
            d="M374.1,299.3h-49.8c-7.8,0-14.1,6.3-14.1,14.1c0,7.8,6.3,14.1,14.1,14.1h49.8c7.8,0,14.1-6.3,14.1-14.1   C388.2,305.6,381.8,299.3,374.1,299.3z">
        </path>
        <path
            d="M359.9,350.8h-35.7c-7.8,0-14.1,6.3-14.1,14.1c0,7.8,6.3,14.1,14.1,14.1h35.7c7.8,0,14.1-6.3,14.1-14.1   C374.1,357.1,367.7,350.8,359.9,350.8z">
        </path>
    </g>
</svg>