<?xml version="1.0" encoding="utf-8"?>
<svg height='300px' width='300px' fill="#000000" xmlns="http://www.w3.org/2000/svg"
    xmlns:xlink="http://www.w3.org/1999/xlink" version="1.1" x="0px" y="0px" viewBox="0 0 95 95"
    enable-background="new 0 0 95 95" xml:space="preserve">
    <g>
        <path
            d="M64.203,55.205l-12.205-7.844c-0.047-1.541-0.861-2.882-2.08-3.659L49.18,22.715c0-1.104-0.752-1.999-1.68-1.999   c-0.926,0-1.678,0.895-1.678,1.999l-0.74,20.987c-1.256,0.801-2.094,2.198-2.094,3.797c0,2.492,2.021,4.512,4.512,4.512   c0.771,0,1.484-0.211,2.119-0.551l12.904,6.652c0.709,0.409,1.658,0.089,2.121-0.714C65.109,56.596,64.91,55.613,64.203,55.205z">
        </path>
        <path
            d="M47.5,4.159C23.604,4.159,4.158,23.602,4.158,47.5c0,23.897,19.445,43.341,43.342,43.341S90.842,71.397,90.842,47.5   C90.842,23.602,71.396,4.159,47.5,4.159z M67.162,79.055l-1.287-2.229c-0.346-0.599-1.109-0.803-1.709-0.458   c-0.598,0.346-0.803,1.109-0.457,1.708L65,80.312c-4.582,2.454-9.736,3.974-15.207,4.308v-5.036c0-1.15-0.934-2.083-2.084-2.083   s-2.082,0.933-2.082,2.083v5.066C40,84.369,34.701,82.829,30,80.313l1.291-2.236c0.346-0.599,0.141-1.363-0.457-1.708   c-0.6-0.346-1.363-0.141-1.709,0.457l-1.287,2.23c-4.811-3.009-8.885-7.083-11.893-11.894l2.23-1.288   c0.598-0.346,0.803-1.11,0.457-1.708c-0.346-0.599-1.109-0.803-1.707-0.458L14.688,65c-2.455-4.584-3.973-9.738-4.307-15.208h5.035   c1.15,0,2.084-0.933,2.084-2.083s-0.934-2.083-2.084-2.083H10.35C10.631,39.999,12.17,34.7,14.688,30l2.236,1.291   c0.6,0.345,1.363,0.141,1.709-0.458c0.346-0.598,0.141-1.362-0.457-1.707l-2.23-1.288c3.008-4.811,7.082-8.885,11.893-11.894   l1.287,2.23c0.346,0.598,1.111,0.803,1.709,0.457c0.598-0.345,0.803-1.109,0.457-1.707L30,14.688   c4.584-2.454,9.738-3.973,15.209-4.307v5.034c0,1.15,0.932,2.083,2.082,2.083s2.084-0.933,2.084-2.083v-5.064   c5.627,0.28,10.926,1.82,15.625,4.338l-1.291,2.236c-0.346,0.599-0.141,1.362,0.459,1.708c0.598,0.346,1.361,0.141,1.707-0.458   l1.287-2.229c4.811,3.008,8.885,7.082,11.893,11.893l-2.229,1.287c-0.6,0.345-0.803,1.109-0.459,1.708   c0.346,0.598,1.109,0.803,1.709,0.457l2.236-1.291c2.455,4.584,3.973,9.738,4.309,15.209h-5.037c-1.15,0-2.082,0.933-2.082,2.083   s0.932,2.083,2.082,2.083h5.066C84.369,55,82.83,60.3,80.313,65.001l-2.236-1.291c-0.6-0.346-1.363-0.141-1.709,0.457   s-0.141,1.362,0.459,1.708l2.23,1.287C76.047,71.973,71.973,76.047,67.162,79.055z">
        </path>
    </g>
</svg>