<?xml version="1.0" encoding="utf-8"?>
<svg height='300px' width='300px' fill="#000000" xmlns="http://www.w3.org/2000/svg"
  xmlns:xlink="http://www.w3.org/1999/xlink" xml:space="preserve" version="1.1"
  style="shape-rendering:geometricPrecision;text-rendering:geometricPrecision;image-rendering:optimizeQuality;"
  viewBox="0 0 287 369" x="0px" y="0px" fill-rule="evenodd" clip-rule="evenodd">
  <defs>
    <style type="text/css">
      .fil0 {
        fill: #000000
      }
    </style>
  </defs>
  <g>
    <path class="fil0"
      d="M238 194c-29,165 -219,167 -238,-14 30,149 187,151 224,14 8,-29 39,-42 57,-22 22,23 -17,83 -47,89 1,-4 1,-8 2,-11 17,-9 43,-44 29,-62 -5,-6 -25,-7 -27,6z">
    </path>
    <path class="fil0"
      d="M129 123c62,2 110,15 110,31 0,18 -53,31 -119,31 -65,0 -119,-13 -119,-31 0,-9 16,-17 40,-23 -18,5 -29,12 -29,19 0,15 46,27 102,27 56,0 101,-12 101,-27 0,-14 -37,-25 -86,-27z">
    </path>
    <path class="fil0"
      d="M194 285c39,7 66,22 66,39 0,25 -57,45 -127,45 -70,0 -127,-20 -127,-45 0,-13 17,-25 42,-33 -18,7 -30,16 -30,26 0,22 48,39 108,39 60,0 108,-17 108,-39 0,-12 -16,-23 -42,-30 1,-1 1,-2 2,-2z">
    </path>
    <path class="fil0" d="M124 0c76,73 -50,114 -49,155 -8,-66 91,-101 49,-155z"></path>
    <path class="fil0" d="M165 47c40,56 -46,68 -50,94 2,-43 70,-54 50,-94z"></path>
    <path class="fil0" d="M80 15c60,53 -34,89 -32,120 -8,-50 65,-80 32,-120z"></path>
  </g>
</svg>