<?xml version="1.0" encoding="utf-8"?>
<svg height='300px' width='300px' fill="#000000" xmlns="http://www.w3.org/2000/svg"
    xmlns:xlink="http://www.w3.org/1999/xlink" version="1.1" x="0px" y="0px" viewBox="0 0 100 100"
    enable-background="new 0 0 100 100" xml:space="preserve">
    <path
        d="M78.918,31.02c-0.142-0.08-0.294-0.143-0.463-0.173c-0.663-0.12-1.31-0.182-1.943-0.214  c-3.199-11.69-14.043-20.054-26.243-20.054c-15.015,0-27.231,12.213-27.231,27.225c0,0.816,0.042,1.638,0.124,2.476  c-0.937-0.237-1.946-0.36-3.015-0.298c-0.007,0-0.015-0.001-0.022-0.001c-0.019,0-0.037,0.003-0.055,0.003  c-0.019,0.001-0.036,0-0.054,0.001c-0.004,0-0.008,0.002-0.013,0.002c-8.215,0.067-14.88,6.765-14.88,14.996  c0,8.272,6.73,15.003,15.003,15.003h11.341c0.829,0,1.5-0.672,1.5-1.5s-0.671-1.5-1.5-1.5H20.125  c-6.619,0-12.003-5.385-12.003-12.003S13.506,42.98,20.125,42.98c0.985,0,1.986,0.145,2.99,0.413  c2.436,0.851,4.155,2.667,4.191,2.706c0.296,0.323,0.7,0.487,1.106,0.487c0.361,0,0.723-0.129,1.01-0.392  c0.612-0.558,0.656-1.507,0.098-2.119c-0.088-0.097-1.262-1.356-3.14-2.457c-0.217-1.322-0.342-2.583-0.342-3.814  c0-13.358,10.87-24.225,24.231-24.225c10.626,0,20.085,7.134,23.149,17.191c-3.87,0.536-6.598,2.236-6.755,2.336  c-0.697,0.445-0.901,1.369-0.458,2.067c0.285,0.45,0.771,0.696,1.269,0.696c0.273,0,0.551-0.075,0.8-0.231  c0.034-0.022,2.827-1.745,6.562-1.996l0.498,0.004c9.119,0.078,16.538,7.553,16.538,16.663c0,9.196-7.48,16.677-16.675,16.677  h-6.011c-0.828,0-1.5,0.672-1.5,1.5s0.672,1.5,1.5,1.5h6.011c10.849,0,19.675-8.827,19.675-19.677  C94.871,40.774,87.98,32.775,78.918,31.02z">
    </path>
    <path
        d="M52.15,44.091c-4.383,0-8.014,1.488-10.792,4.424c-2.774,2.891-4.177,6.682-4.177,11.266c0,4.449,1.27,7.919,3.783,10.311  c2.563,2.402,5.739,3.618,9.422,3.618c2.53,0,6.341-0.574,8.673-2.048h-0.044c0.527-0.243,0.896-0.771,0.896-1.385  c0-0.845-0.686-1.534-1.533-1.534c-0.235,0-3.595,1.625-7.673,1.625c-2.791,0-5.13-0.925-6.957-2.748  c-1.82-1.823-2.748-4.527-2.748-8.041c0-3.687,1.035-6.689,3.075-8.925c2.089-2.246,4.767-3.385,7.953-3.385  c6.015,0,9.064,3.106,9.064,9.227c0,4.793-1.001,7.223-2.976,7.223c-1.021,0-1.492-0.604-1.492-1.897c0-0.511,0-0.949,0.037-1.304  l0.723-8.128l0.014-0.137l-0.125-0.056c-1.9-0.832-3.668-1.256-5.245-1.256c-2.423,0-4.449,0.884-6.03,2.627  c-1.594,1.756-2.368,3.971-2.368,6.773c0,3.885,2.32,6.395,5.916,6.395c1.7,0,3.329-0.85,4.323-2.232  c0.686,1.459,2.005,2.194,3.927,2.194c4.619,0,6.958-3.416,6.958-10.162C64.755,48.625,60.162,44.091,52.15,44.091z M52.965,60.047  c-0.199,2.243-1.411,3.751-3.021,3.751c-1.731,0-2.575-1.235-2.575-3.776c0-1.774,0.46-3.271,1.367-4.453  c0.87-1.175,2.003-1.769,3.374-1.769c0.48,0,0.937,0.062,1.362,0.188L52.965,60.047z">
    </path>
</svg>