<?xml version="1.0" encoding="utf-8"?>
<svg height='300px' width='300px' fill="#000000" xmlns="http://www.w3.org/2000/svg"
  xmlns:xlink="http://www.w3.org/1999/xlink" xml:space="preserve" version="1.1"
  style="shape-rendering:geometricPrecision;text-rendering:geometricPrecision;image-rendering:optimizeQuality;"
  viewBox="0 0 846.66 846.66" x="0px" y="0px" fill-rule="evenodd" clip-rule="evenodd">
  <defs>
    <style type="text/css">
      .fil0 {
        fill: #000000
      }
    </style>
  </defs>
  <g>
    <path class="fil0"
      d="M209.85 642.17l53.21 61.31 53.22 -61.31 -28.7 -143.48 -24.52 0 -24.51 0 -28.7 143.48zm553.48 -354.55l-37.65 -85.35 -37.66 85.35 75.31 0zm-98.55 149.84l-37.89 -36.02 0 -231.68 88.45 0 -51.99 117.86 -12.03 0c0,97.83 148.72,97.81 148.72,0l-12.03 0 -52.01 -117.86 31.38 0 0 -22.58c-46.89,0 -92.79,0 -140.49,0l0 -10.04 -36.14 0 0 10.04c-47.69,0 -93.6,0 -140.49,0l0 22.58 31.37 0 -52 117.86 -12.04 0c0,97.81 148.73,97.83 148.73,0l-12.04 0 -51.99 -117.86 88.46 0 0 231.68 -37.88 36.02 -34.8 0 0 22.59 181.49 0 0 -22.59 -34.78 0zm-135.17 -149.84l-37.65 -85.35 -37.66 85.35 75.31 0zm-416.94 -131.22c0,-90.95 62.89,-140.6 150.38,-140.6 87.51,0 150.39,49.64 150.39,140.6 0,97.53 -29.73,225.56 -150.39,225.56 -120.66,0 -150.38,-128.04 -150.38,-225.56zm80.19 233.56l-1.33 -13.13c14.8,8.3 31.74,13.97 51.15,16.29l3.67 35.9c-67.23,12.59 -143.39,43.19 -149.88,122.51l166.58 201.96 166.6 -201.96c-6.49,-79.33 -82.65,-109.91 -149.88,-122.51l3.66 -35.9c19.4,-2.32 36.37,-8 51.16,-16.31l-1.35 13.15c88.02,24.99 143.03,85.8 146.45,178.17l-216.64 262.72 -216.42 -262.11c1.02,-91.89 59.88,-154.26 146.23,-178.78zm-30.79 -233.56c0,66.11 13.83,176.16 100.98,176.16 87.17,0 100.99,-110.03 100.99,-176.16 0,-63.47 -41.04,-91.2 -100.99,-91.2 -59.94,0 -100.98,27.73 -100.98,91.2zm76.48 286.74l49.02 0 0 45.74 -49.02 0 0 -45.74z">
    </path>
  </g>
</svg>