<?xml version="1.0" encoding="utf-8"?>
<svg height='300px' width='300px' fill="#000000" xmlns="http://www.w3.org/2000/svg"
    xmlns:xlink="http://www.w3.org/1999/xlink" version="1.1" x="0px" y="0px" viewBox="0 0 100 100"
    enable-background="new 0 0 100 100" xml:space="preserve">
    <path fill="#000000" d="M51.5-12.25"></path>
    <path opacity="0.91" fill="#000000"
        d="M56.513,27.895c0.075-0.467,0.122-0.797,0.122-1.14c0-2.772-1.971-10.11-1.971-10.639  c0-0.53,0.897-1.345,0.897-1.345V6.457h-0.015c0-0.654-2.477-1.183-5.53-1.183c-0.005,0-0.011,0.002-0.016,0.002  c-0.007,0-0.012-0.002-0.018-0.002c-3.054,0-5.529,0.529-5.529,1.183h-0.015v8.314c0,0,0.897,0.815,0.897,1.345  c0,0.529-1.972,7.867-1.972,10.639c0,0.319,0.039,0.711,0.103,1.14c0,0,3.021-0.65,6.608-0.652  C53.662,27.241,56.513,27.895,56.513,27.895z">
    </path>
    <path fill="#000000"
        d="M60.761,94.794H39.24c-1.9,0-3.603-1.375-3.961-3.196l-0.006-5.373l0.856-1.397v-38.99l-0.856-0.912v-5.573  l0.212-0.079c4.679-1.742,7.113-3.891,8.237-5.178c-0.21-0.188-0.335-0.442-0.335-0.712c0-0.444,0.326-0.823,0.782-0.969  c-0.297-1.049-1.129-4.127-1.129-5.66c0-1.967,0.966-6.156,1.543-8.66c0.217-0.941,0.422-1.831,0.428-1.981  c0-0.249-0.459-0.8-0.791-1.102l-0.106-0.097V6.13h0.114c0.753-1.167,5.536-1.182,5.756-1.182l0.049,0.003  c0.584,0,5.017,0.059,5.741,1.179h0.1l0.015,0.327v8.458l-0.106,0.097c-0.331,0.302-0.791,0.854-0.791,1.104  c0.005,0.148,0.21,1.038,0.429,1.979c0.576,2.504,1.541,6.693,1.541,8.66c0,1.534-0.881,4.61-1.196,5.662  c0.453,0.147,0.774,0.525,0.774,0.967c0,0.25-0.107,0.487-0.297,0.67c0.988,1.132,3.439,3.419,8.274,5.219l0.212,0.079v5.573  l-0.856,0.912v38.99l0.856,1.397v5.31C64.363,93.419,62.66,94.794,60.761,94.794z M35.924,86.407v5.127  c0.293,1.46,1.722,2.608,3.315,2.608h21.521c1.594,0,3.021-1.148,3.321-2.673l-0.007-5.062l-0.855-1.397V45.579l0.855-0.913v-4.862  c-5.069-1.927-7.539-4.335-8.567-5.609l-0.262-0.326l0.38-0.175c0.127-0.058,0.262-0.17,0.262-0.311c0-0.206-0.25-0.381-0.545-0.381  H54.9l0.132-0.424c0.013-0.04,1.275-4.095,1.275-5.825c0-1.892-0.955-6.037-1.525-8.514c-0.328-1.427-0.444-1.943-0.444-2.125  c0-0.551,0.617-1.213,0.897-1.486l-0.015-8.173C55.086,6.161,53.229,5.6,50.017,5.6l-0.044,0.003l-0.05-0.009  c-3.15,0.006-5.008,0.567-5.145,0.881v0.326l-0.013,0v7.829c0.28,0.272,0.896,0.935,0.896,1.486c0,0.182-0.115,0.698-0.443,2.125  c-0.571,2.477-1.526,6.622-1.526,8.514c0,1.733,1.191,5.79,1.204,5.83l0.123,0.419h-0.437c-0.295,0-0.543,0.175-0.543,0.381  c0,0.132,0.114,0.262,0.292,0.331l0.417,0.162l-0.282,0.348c-1.028,1.268-3.499,3.663-8.542,5.581v4.862l0.857,0.913v39.432  L35.924,86.407z">
    </path>
    <rect x="36.455" y="47.702" fill="#000000" width="27.091" height="37.217"></rect>
</svg>